<svg width="0" height="0" class="hidden">
  <symbol fill="none" xmlns="http://www.w3.org/2000/svg" viewBox="0 0 124 50" id="click">
    <g clip-path="url(#clip0_436_3837)">
      <path d="M65.3 33.8C64.2 33.8 63.1999 33.6 62.2999 33.3C61.3999 33 60.6 32.5 59.9 31.8C59.2 31.1 58.6999 30.3 58.2999 29.3C57.8999 28.3 57.7 27.1 57.7 25.8V25.2C57.7 24 57.8999 22.9 58.2999 21.9C58.6999 21 59.3 20.2 60 19.5C60.7 18.8 61.5 18.4 62.4 18C63.3 17.7 64.3 17.5 65.3 17.5C66.4 17.5 67.2999 17.6 68.1999 17.9C68.9999 18.2 69.7 18.6 70.3 19.1C70.9 19.6 71.2999 20.2 71.6999 20.9C71.9999 21.6 72.2 22.3 72.3 23.1H68.4C68.2 22.4 67.8 21.8 67.4 21.4C66.9 21 66.3 20.8 65.4 20.8C64.9 20.8 64.4 20.9 64 21.1C63.6 21.3 63.1999 21.5 62.7999 21.9C62.4999 22.3 62.2 22.7 62 23.3C61.8 23.8 61.7 24.5 61.7 25.3V25.9C61.7 26.7 61.8 27.4 62 28C62.2 28.6 62.3999 29.1 62.7999 29.4C63.0999 29.8 63.5 30.1 64 30.2C64.4 30.4 64.9 30.5 65.4 30.5C66.2 30.5 66.8 30.3 67.4 29.9C67.9 29.5 68.3 28.9 68.5 28.2H72.4C72.3 29.1 72.0999 29.8 71.6999 30.5C71.2999 31.2 70.7999 31.8 70.1999 32.3C69.5999 32.8 68.8999 33.2 68.0999 33.4C67.1999 33.7 66.3 33.8 65.3 33.8Z" fill="black"></path>
      <path d="M80.2001 33.7C79.3001 33.7 78.5001 33.6 77.9001 33.5C77.3001 33.3 76.7001 33 76.3001 32.6C75.9001 32.2 75.6001 31.6 75.4001 30.9C75.2001 30.2 75.1001 29.3 75.1001 28.3V13H79.0001V27.8C79.0001 28.3 79.0001 28.7 79.1001 29C79.2001 29.3 79.3001 29.6 79.4001 29.8C79.6001 30 79.8001 30.2 80.0001 30.2C80.3001 30.3 80.6001 30.3 81.0001 30.3C81.2001 30.3 81.4001 30.3 81.6001 30.3C81.8001 30.3 81.9001 30.3 82.1001 30.3V33.5C82.0001 33.5 81.9001 33.5 81.7001 33.6C81.6001 33.6 81.4001 33.6 81.2001 33.6C81.0001 33.6 80.9001 33.6 80.7001 33.6H80.2001V33.7Z" fill="black"></path>
      <path d="M86.8 16.3C86.1 16.3 85.5 16.1 85.1 15.7C84.7 15.3 84.5 14.8 84.5 14.2C84.5 13.6 84.7 13.1 85.1 12.7C85.5 12.3 86.1 12.1 86.8 12.1C87.5 12.1 88.1 12.3 88.5 12.7C88.9 13.1 89.1 13.6 89.1 14.2C89.1 14.8 88.9 15.3 88.5 15.7C88.1 16.1 87.6 16.3 86.8 16.3ZM84.9 18H88.8V33.5H84.9V18Z" fill="black"></path>
      <path d="M99.4 33.8C98.3 33.8 97.3 33.6 96.4 33.3C95.5 33 94.7 32.5 94 31.8C93.3 31.1 92.8 30.3 92.4 29.3C92 28.3 91.8 27.1 91.8 25.8V25.2C91.8 24 92 22.9 92.4 21.9C92.8 21 93.4 20.2 94.1 19.5C94.8 18.8 95.6 18.4 96.5 18C97.4 17.7 98.4 17.5 99.4 17.5C100.5 17.5 101.4 17.6 102.3 17.9C103.1 18.2 103.8 18.6 104.4 19.1C105 19.6 105.4 20.2 105.8 20.9C106.1 21.6 106.3 22.3 106.4 23.1H102.5C102.3 22.4 101.9 21.8 101.5 21.4C101 21 100.4 20.8 99.5 20.8C99 20.8 98.5 20.9 98.1 21.1C97.7 21.3 97.3 21.5 96.9 21.9C96.6 22.3 96.3 22.7 96.1 23.3C95.9 23.8 95.8 24.5 95.8 25.3V25.9C95.8 26.7 95.9 27.4 96.1 28C96.3 28.6 96.5 29.1 96.9 29.4C97.2 29.8 97.6 30.1 98.1 30.2C98.5 30.4 99 30.5 99.5 30.5C100.3 30.5 100.9 30.3 101.5 29.9C102 29.5 102.4 28.9 102.6 28.2H106.5C106.4 29.1 106.2 29.8 105.8 30.5C105.4 31.2 104.9 31.8 104.3 32.3C103.7 32.8 103 33.2 102.2 33.4C101.3 33.7 100.4 33.8 99.4 33.8Z" fill="black"></path>
      <path d="M109.1 33.5V13H112.9V24.4L118.6 18H123.1L117.3 24.5L123.7 33.5H119.1L114.7 27.2L112.9 29.1V33.5H109.1Z" fill="black"></path>
      <path d="M16 33.9C9.8 27.7 9.9 22.1 16 15.9C22.1 9.8 27.8 9.7 34 15.9C40.2 22.1 40.1 27.7 34 33.9C30.9 37 28 38.5 25 38.5C22 38.6 19.1 37 16 33.9ZM8.5 8.5C2.9 14.1 0 19.5 0 24.9V25C0 30.4 2.8 35.8 8.5 41.4C14.2 47.1 19.6 49.9 24.9 49.9H25C30.4 49.9 35.8 47 41.4 41.4C52.7 30.1 52.8 19.8 41.4 8.4C35.8 2.8 30.4 0 25 0C19.5 0 14.1 2.8 8.5 8.5Z" fill="url(#paint0_linear_436_3837)"></path>
    </g>
    <defs>
      <linearGradient id="paint0_linear_436_3837" x1="8.037" y1="41.7857" x2="41.426" y2="8.5843" gradientUnits="userSpaceOnUse">
        <stop stop-color="#0073FF"></stop>
        <stop offset="1" stop-color="#00DEFF"></stop>
      </linearGradient>
      <clipPath id="clip0_436_3837">
        <rect width="124" height="50" fill="white"></rect>
      </clipPath>
    </defs>
  </symbol>
  <symbol fill="none" xmlns="http://www.w3.org/2000/svg" viewBox="0 0 24 24" id="flag">
    <mask id="mask0_466_81" maskUnits="userSpaceOnUse" x="0" y="3" width="24" height="18">
      <path d="M21.7143 3.42859H2.28571C1.02335 3.42859 0 4.45194 0 5.7143V18.2857C0 19.5481 1.02335 20.5714 2.28571 20.5714H21.7143C22.9767 20.5714 24 19.5481 24 18.2857V5.7143C24 4.45194 22.9767 3.42859 21.7143 3.42859Z" fill="white"></path>
    </mask>
    <g mask="url(#mask0_466_81)">
      <path d="M21.7143 3.42859H2.28571C1.02335 3.42859 0 4.45194 0 5.7143V18.2857C0 19.5481 1.02335 20.5714 2.28571 20.5714H21.7143C22.9767 20.5714 24 19.5481 24 18.2857V5.7143C24 4.45194 22.9767 3.42859 21.7143 3.42859Z" fill="#22438B"></path>
      <path fill-rule="evenodd" clip-rule="evenodd" d="M1.76587 3L-1 3.03592L-0.964505 5.76328L22.2191 21L25 20.9489L24.9481 18.2381L1.76587 3Z" fill="white"></path>
      <path fill-rule="evenodd" clip-rule="evenodd" d="M0.368421 3L-1 4.38462L23.6316 21L25 19.6154L0.368421 3Z" fill="#C7152A"></path>
      <path fill-rule="evenodd" clip-rule="evenodd" d="M22.2825 3H25V5.75897C25 5.75897 9.03449 15.9616 1.92542 20.9719C1.83982 21.0326 -0.789391 20.976 -0.789391 20.976L-1 18.3536L22.2825 3Z" fill="white"></path>
      <path fill-rule="evenodd" clip-rule="evenodd" d="M23.6904 3L25 4.42033L0.368421 21L-1 19.6184L23.6904 3Z" fill="#C7152A"></path>
      <path fill-rule="evenodd" clip-rule="evenodd" d="M8.57895 3H15.4211V8.53846H25V15.4615H15.4211V21H8.57895V15.4615H-1V8.53846H8.57895V3Z" fill="white"></path>
      <path fill-rule="evenodd" clip-rule="evenodd" d="M10.1053 3.5H13.8947V10.1538H24V13.8462H13.8947V20.5H10.1053V13.8462H0V10.1538H10.1053V3.5Z" fill="#C7152A"></path>
      <path d="M21.7141 4H2.28557C1.3388 4 0.571289 4.76751 0.571289 5.71429V18.2857C0.571289 19.2325 1.3388 20 2.28557 20H21.7141C22.6609 20 23.4284 19.2325 23.4284 18.2857V5.71429C23.4284 4.76751 22.6609 4 21.7141 4Z" stroke="black" stroke-opacity="0.1"></path>
    </g>
  </symbol>
  <symbol fill="none" xmlns="http://www.w3.org/2000/svg" viewBox="0 0 120 42" id="logo">
    <path d="M45.8523 34.2222V8.55661H56.6138C58.5643 8.55661 60.2477 8.90333 61.6639 9.59677C63.0886 10.2819 64.1868 11.2677 64.9585 12.5543C65.7302 13.8326 66.116 15.349 66.116 17.1035C66.116 18.883 65.7217 20.3952 64.933 21.6401C64.1444 22.8766 63.025 23.8206 61.5748 24.4723C60.1247 25.1156 58.4074 25.4373 56.423 25.4373H49.6176V20.5498H55.2527C56.2025 20.5498 56.9954 20.4286 57.6315 20.1863C58.276 19.9357 58.7636 19.5597 59.0943 19.0585C59.4251 18.5488 59.5904 17.8972 59.5904 17.1035C59.5904 16.3098 59.4251 15.6539 59.0943 15.1359C58.7636 14.6096 58.276 14.2169 57.6315 13.9579C56.987 13.6906 56.1941 13.5569 55.2527 13.5569H52.1489V34.2222H45.8523ZM60.519 22.4922L67.0065 34.2222H60.1374L53.7772 22.4922H60.519Z" fill="#1929B9"></path>
    <path d="M69.5696 34.2222V14.973H75.79V34.2222H69.5696ZM72.6862 12.7298C71.8127 12.7298 71.0622 12.4457 70.4346 11.8776C69.8071 11.3011 69.4933 10.6077 69.4933 9.79728C69.4933 8.99523 69.8071 8.31015 70.4346 7.74203C71.0622 7.16556 71.8127 6.87732 72.6862 6.87732C73.5681 6.87732 74.3186 7.16556 74.9377 7.74203C75.5652 8.31015 75.879 8.99523 75.879 9.79728C75.879 10.6077 75.5652 11.3011 74.9377 11.8776C74.3186 12.4457 73.5681 12.7298 72.6862 12.7298Z" fill="#1929B9"></path>
    <path d="M79.8001 34.2222V30.7258L88.8571 19.8605V19.7352H80.1181V14.973H96.2731V18.8078L87.8776 29.3347V29.4601H96.5784V34.2222H79.8001Z" fill="#1929B9"></path>
    <path d="M109.172 34.5857C107.128 34.5857 105.364 34.1888 103.88 33.3951C102.404 32.5931 101.268 31.4526 100.471 29.9739C99.6822 28.4867 99.2879 26.7197 99.2879 24.6728C99.2879 22.6844 99.6865 20.9466 100.484 19.4595C101.281 17.964 102.404 16.8027 103.855 15.9756C105.305 15.1401 107.013 14.7224 108.981 14.7224C110.372 14.7224 111.644 14.9354 112.797 15.3615C113.95 15.7876 114.947 16.4184 115.786 17.2538C116.626 18.0893 117.279 19.1211 117.745 20.3493C118.212 21.569 118.445 22.9685 118.445 24.5475V26.0764H101.463V22.5173H112.657C112.649 21.8656 112.492 21.285 112.186 20.7754C111.881 20.2657 111.461 19.8689 110.927 19.5848C110.401 19.2924 109.795 19.1462 109.108 19.1462C108.413 19.1462 107.789 19.3007 107.238 19.6099C106.687 19.9106 106.25 20.3242 105.928 20.8505C105.606 21.3685 105.436 21.9575 105.419 22.6176V26.2393C105.419 27.0247 105.576 27.7139 105.89 28.3071C106.204 28.8919 106.649 29.3473 107.225 29.6731C107.802 29.9989 108.489 30.1618 109.286 30.1618C109.837 30.1618 110.338 30.0867 110.787 29.9363C111.237 29.7859 111.623 29.5645 111.945 29.2721C112.267 28.9797 112.509 28.6204 112.67 28.1943L118.381 28.3572C118.144 29.6188 117.622 30.7174 116.817 31.6532C116.02 32.5805 114.972 33.3032 113.675 33.8212C112.377 34.3308 110.876 34.5857 109.172 34.5857Z" fill="#1929B9"></path>
    <path d="M8.21762 7.84463C8.6541 6.30934 10.0564 5.25012 11.6525 5.25012H34.9364C36.9087 5.25012 38.5075 6.84893 38.5075 8.82116V33.1791C38.5075 35.1513 36.9087 36.7501 34.9364 36.7501H4.72776C2.3572 36.7501 0.64459 34.4828 1.29284 32.2026L8.21762 7.84463Z" fill="#1929B9"></path>
    <path d="M24.3647 10.2051C24.21 11.3367 23.6799 12.7513 22.7742 14.4487C21.8685 16.1244 20.7862 17.811 19.5271 19.5085C18.29 21.1842 17.1303 22.5661 16.0479 23.6542H22.6085V18.9862C23.2933 18.0286 23.9891 16.897 24.696 15.5912C25.4029 14.2855 25.8668 13.2083 26.0877 12.3595H28.9041V23.6542H32.085V28.4528H28.9041V33.0555H22.6085V28.4528H11.5085V23.5889C12.7014 21.8914 13.8832 19.8349 15.0539 17.4193C16.2247 15.0037 17.1635 12.5989 17.8703 10.2051H24.3647Z" fill="white"></path>
  </symbol>
  <symbol fill="none" xmlns="http://www.w3.org/2000/svg" viewBox="0 0 105 32" id="payme">
    <g clip-path="url(#clip0_436_3825)">
      <path d="M29.6471 22.324C29.6471 22.82 29.7706 23.316 30.3882 23.316H33.6C34.2177 23.316 34.3412 22.82 34.3412 22.324V12.528C34.3412 11.908 34.3412 11.288 34.2177 10.792C34.0941 10.296 33.9706 9.8 33.8471 9.428C33.7235 9.056 33.4765 8.684 33.2294 8.436C32.9824 8.188 32.6118 7.94 32.3647 7.692C31.9941 7.444 31.6235 7.32 31.2529 7.072C30.8824 6.948 30.3882 6.824 30.0177 6.7C29.5235 6.576 29.0294 6.576 28.5353 6.452C28.0412 6.452 27.4235 6.452 26.6824 6.452C22.2353 6.452 19.7647 7.816 19.1471 10.544C19.1471 10.668 19.1471 10.792 19.1471 10.916C19.1471 11.04 19.1471 11.164 19.2706 11.164C19.3941 11.288 19.3941 11.288 19.5177 11.412C19.6412 11.412 19.7647 11.536 19.8882 11.536H22.6059C23.3471 11.536 23.3471 11.288 23.5941 10.668C23.7177 10.296 23.9647 10.048 24.2118 9.8C24.7059 9.304 25.4471 9.18 26.4353 9.18C27.4235 9.18 28.1647 9.428 28.6588 9.8C29.1529 10.172 29.4 10.792 29.4 11.536C29.4 12.404 29.1529 13.024 28.0412 13.024C25.3235 12.9 22.4824 13.272 20.8765 14.14C19.2706 15.008 18.2824 16.868 18.2824 18.852C18.2824 19.596 18.4059 20.34 18.7765 20.96C19.0235 21.58 19.5177 22.076 20.0118 22.448C20.5059 22.82 21.1235 23.192 21.8647 23.316C22.6059 23.564 23.3471 23.688 24.2118 23.564C25.3235 23.564 26.3118 23.44 27.3 23.192C28.1647 22.944 29.6471 21.952 29.7706 21.828L29.6471 22.324ZM29.5235 18.852C29.5235 18.852 28.6588 20.588 25.8177 20.588C25.0765 20.588 24.4588 20.464 23.8412 20.092C23.3471 19.72 23.1 19.224 23.1 18.356C23.1 17.364 23.4706 16.62 24.3353 16.248C25.2 15.876 26.8059 15.628 28.0412 15.628C29.2765 15.628 29.6471 16.372 29.6471 16.992C29.5235 17.116 29.5235 18.852 29.5235 18.852ZM1.11177 23.192H4.32354C5.18824 23.192 5.06471 22.2 5.06471 22.2V19.472C2.71765 18.604 1.2353 17.488 0.123535 16.372V22.076C0.247065 22.324 0.123535 23.192 1.11177 23.192ZM17.9118 7.444C17.9118 6.7 17.7882 6.08 17.6647 5.336C17.5412 4.716 17.1706 3.972 16.8 3.476C16.4294 2.856 15.9353 2.36 15.4412 1.988C14.9471 1.616 14.3294 1.244 13.7118 1.12C13.0941 0.872 12.3529 0.624 11.6118 0.624C10.7471 0.5 10.0059 0.5 9.01765 0.5H1.60589C0.988241 0.5 0.247065 0.872 0.247065 1.74V13.644C1.2353 15.628 2.96471 17.736 5.06471 18.728V16.372C5.06471 15.132 6.05295 14.884 6.42353 14.884H8.64706C11.7353 14.884 13.9588 14.264 15.5647 13.024C17.1706 11.784 17.9118 9.924 17.9118 7.444ZM12.6 9.552C12.3529 9.924 11.9824 10.296 11.4882 10.544C10.9941 10.792 10.3765 10.916 9.88236 10.916C9.26471 10.916 8.64706 11.04 8.02942 11.04H5.92942C5.4353 11.04 5.06471 10.668 5.06471 10.048V5.212C5.06471 5.088 5.06471 4.964 5.06471 4.964C5.06471 4.84 5.18824 4.716 5.18824 4.716C5.31177 4.592 5.31177 4.592 5.4353 4.592C5.55883 4.592 5.68236 4.592 5.68236 4.592H7.78236C8.52354 4.592 9.14118 4.592 9.75883 4.592C10.2529 4.592 10.8706 4.716 11.3647 4.964C11.8588 5.212 12.2294 5.46 12.3529 5.956C12.6 6.328 12.7235 6.948 12.7235 7.816C12.9706 8.312 12.8471 8.932 12.6 9.552ZM38.1706 26.044C37.9235 26.044 37.6765 26.044 37.4294 26.044C37.1824 26.044 36.5647 26.044 36.5647 26.54V28.772C36.5647 29.64 36.9353 29.64 37.1824 29.764C37.8 29.888 38.5412 30.012 39.2824 30.012C40.1471 30.012 40.8882 29.888 41.6294 29.516C42.3706 29.144 42.9882 28.772 43.4824 28.152C43.9765 27.532 44.4706 26.788 44.8412 26.044C45.2118 25.176 45.5824 24.308 45.9529 23.316C45.9529 23.316 46.0765 22.944 46.4471 22.2C45.7059 22.82 41.8765 26.416 38.1706 26.044ZM51.0177 6.824H48.1765C47.9294 6.824 47.6824 6.948 47.4353 7.072C47.1882 7.196 47.0647 7.444 46.9412 7.692C46.6941 8.312 43.6059 16.868 43.6059 16.868C43.6059 16.868 40.6412 8.56 40.3941 7.94C40.1471 7.32 39.7765 6.824 39.0353 6.824H36.3176C35.3294 6.824 35.3294 7.568 35.4529 7.816C35.5765 8.064 39.1588 17.984 40.6412 21.828C41.0118 22.696 41.1353 22.944 41.1353 23.316C41.1353 23.688 40.7647 24.308 40.5177 24.804C40.3941 24.928 40.2706 25.176 40.1471 25.3C42.8647 24.432 46.0765 21.58 47.6824 18.356C49.2882 13.892 51.3882 8.064 51.5118 7.692C51.7588 7.196 51.7588 6.824 51.0177 6.824Z" fill="#232225"></path>
      <path d="M88.8177 10.42C87.0883 10.42 85.9766 11.536 85.7295 13.52H91.7824C91.6589 11.784 90.6707 10.42 88.8177 10.42Z" fill="#33CCCC"></path>
      <path d="M101.541 13.52C100.924 12.776 97.0942 7.81601 95.7354 6.45201C94.1295 4.84001 92.7707 4.09601 91.2883 4.09601H58.6766C55.7119 4.09601 54.7236 5.08801 54.7236 8.43601V21.952C54.7236 25.3 54.9707 26.788 59.2942 26.788H91.2883C92.7707 26.788 94.3766 25.548 95.4883 24.308C96.8472 22.944 100.924 18.604 101.541 17.488C101.912 16.868 102.035 16.248 102.035 15.504C102.159 14.76 101.912 14.016 101.541 13.52ZM57.6883 8.80801C57.6883 8.31201 57.8119 7.94001 58.4295 7.94001H61.1472C61.8883 7.94001 61.8883 8.31201 61.8883 8.80801V8.93201C60.5295 9.67601 59.0472 10.42 57.6883 12.28V8.80801ZM79.0589 22.324H76.2178C75.4766 22.324 75.6001 21.704 75.6001 21.456V13.148C75.6001 12.156 75.4766 11.536 75.2295 11.164C75.106 10.916 74.8589 10.792 74.6119 10.668C74.3648 10.544 74.1178 10.544 73.8707 10.544C72.3883 10.544 71.4001 12.032 70.906 12.652V21.58C70.906 21.828 71.0295 22.324 70.1648 22.324H67.4472C66.706 22.324 66.8295 21.704 66.8295 21.456V13.148C66.8295 12.156 66.706 11.536 66.4589 11.164C66.2119 10.792 65.7178 10.544 65.1001 10.544C63.4942 10.544 62.6295 12.032 62.1354 12.652V21.58C62.1354 21.828 62.2589 22.324 61.3942 22.324H58.553C57.8119 22.324 57.9354 21.704 57.9354 21.456V16C57.9354 12.404 62.3825 8.93201 62.6295 8.68401C63.7413 7.81601 65.1001 7.44401 66.4589 7.44401C67.4472 7.44401 68.3119 7.56801 69.1766 8.06401C69.9178 8.56001 70.4119 9.18001 70.7825 10.048C71.4001 9.30401 72.1413 8.68401 73.006 8.18801C73.7472 7.69201 74.6119 7.56801 75.4766 7.56801C78.6883 7.56801 80.1707 9.30401 80.1707 12.9V21.58C79.8001 21.828 79.9236 22.324 79.0589 22.324ZM94.7472 16H85.7295C85.7295 18.356 86.9648 19.596 88.9413 19.596C90.1766 19.596 90.9177 19.1 91.5354 17.984C91.6589 17.86 91.7825 17.736 91.906 17.612C92.0295 17.488 92.2766 17.488 92.4001 17.488H94.7472C94.8707 17.488 94.8707 17.488 94.9942 17.488C95.1178 17.488 95.1178 17.612 95.1178 17.612L95.2413 17.736C95.2413 17.86 95.2413 17.86 95.2413 17.984C94.253 20.588 91.906 22.076 88.9413 22.076C84.6178 22.076 81.9001 19.224 81.9001 14.884C81.9001 10.668 84.8648 7.56801 88.8178 7.56801C92.8942 7.56801 95.4883 10.296 95.6119 14.76C95.6119 15.38 95.4883 16 94.7472 16Z" fill="#33CCCC"></path>
    </g>
    <defs>
      <clipPath id="clip0_436_3825">
        <rect width="105" height="31" fill="white" transform="translate(0 0.5)"></rect>
      </clipPath>
    </defs>
  </symbol>
  <symbol fill="none" xmlns="http://www.w3.org/2000/svg" viewBox="0 0 108 44" id="uzum-bank">
    <g clip-path="url(#clip0_436_3823)">
      <path fill-rule="evenodd" clip-rule="evenodd" d="M21.3584 42.6538C32.9351 42.6538 42.3169 33.3042 42.3169 21.7673C42.3169 10.2104 32.9351 0.86084 21.3584 0.858398C9.78918 0.858398 0.397461 10.2104 0.397461 21.7673C0.397461 33.3018 9.79175 42.6538 21.3584 42.6538ZM21.356 8.01819C22.1719 8.01819 22.9779 8.05042 23.7616 8.12231V19.2723H18.9602V8.12231C19.7439 8.05042 20.5499 8.01819 21.356 8.01819ZM29.5052 13.2733C31.3776 13.6056 33.1656 14.0669 34.8595 14.6199H34.8621V22.6874C34.8621 30.0951 28.8158 36.1464 21.3584 36.1464C13.9135 36.1464 7.86719 30.0951 7.86719 22.6874V14.6199C9.56104 14.0669 11.3491 13.608 13.2216 13.2733V22.6353C13.2216 29.376 16.0984 32.9174 21.3584 32.9174C26.6383 32.9174 29.5052 29.376 29.5052 22.6353V13.2733ZM98.5344 11.3789C99.2362 10.2257 100.642 9.46191 102.52 9.46191C105.687 9.46191 107.217 11.4731 107.224 13.9581V19.9275H104.266V14.3748C104.266 13.1893 103.594 12.1428 102.168 12.1428C100.742 12.1428 100.04 13.1497 100.04 14.3326V19.9275H97.0811V14.3326C97.0811 13.1497 96.3346 12.1428 94.8987 12.1428C93.4727 12.1428 92.8428 13.1919 92.8428 14.3748V19.9275H89.8842V13.9557C89.8842 11.4731 91.5085 9.46191 94.6656 9.46191C96.28 9.46191 97.8202 10.2257 98.5344 11.3789ZM74.6644 12.1552V9.66028H65.0668V12.1552H70.751L64.8362 17.4351V19.9301H75.0215V17.4351H68.7595L74.6644 12.1552ZM84.6687 15.037C84.6687 16.6713 83.7461 17.4252 82.3822 17.4252C81.0082 17.4252 80.1179 16.6713 80.1179 15.037V9.66028H77.1593V15.1411C77.1593 18.7148 80.1377 20.1185 82.3921 20.1185C84.6166 20.1185 87.6249 18.7148 87.6249 15.1411V9.66028H84.6663V15.037H84.6687ZM59.9381 15.037C59.9381 16.6713 59.0156 17.4252 57.6516 17.4252C56.2777 17.4252 55.3873 16.6713 55.3873 15.037V9.66028H52.4287V15.1411C52.4287 18.7148 55.4072 20.1185 57.6615 20.1185C59.8861 20.1185 62.8943 18.7148 62.8943 15.1411V9.66028H59.9357V15.037H59.9381ZM57.4309 35.4623C57.8848 35.6508 58.4452 35.745 59.1099 35.745C59.7744 35.745 60.4069 35.6284 61.0071 35.4052C61.6047 35.177 62.1281 34.8447 62.5743 34.4132C63.0233 33.9817 63.3779 33.4485 63.6433 32.8136C63.9087 32.1787 64.04 31.4546 64.04 30.6436C64.04 29.8326 63.9087 29.1085 63.6433 28.4736C63.3779 27.8387 63.0233 27.3055 62.5743 26.874C62.1281 26.4425 61.6047 26.1101 61.0071 25.882C60.4093 25.6514 59.777 25.5372 59.1123 25.5372C58.4601 25.5372 57.9095 25.6117 57.4631 25.7605C57.0143 25.9093 56.6422 26.0779 56.3422 26.2689C55.99 26.4846 55.7048 26.7227 55.4866 26.9806H55.365V21.4899H52.4337V35.7275H55.365V33.9543H55.5063C55.7097 34.2916 55.9825 34.5892 56.3223 34.8497C56.605 35.0704 56.9771 35.2738 57.4309 35.4623ZM60.2804 32.4292C59.7844 32.9028 59.09 33.141 58.1923 33.141C57.297 33.141 56.6025 32.9028 56.1066 32.4292C55.6106 31.9556 55.3625 31.3578 55.3625 30.6387C55.3625 29.8922 55.6205 29.2896 56.1364 28.8282C56.6521 28.3669 57.3367 28.1364 58.1923 28.1364C59.0875 28.1364 59.7844 28.3744 60.2804 28.848C60.7764 29.3218 61.0244 29.9194 61.0244 30.6387C61.0244 31.3578 60.7764 31.9556 60.2804 32.4292ZM80.1799 25.5547H83.1138V27.3799H83.2775C83.4535 27.0352 83.704 26.7301 84.0314 26.4673C84.3042 26.2416 84.6737 26.0308 85.1423 25.8324C85.6111 25.634 86.2113 25.5348 86.9453 25.5348C87.543 25.5348 88.1035 25.6191 88.6243 25.7853C89.1451 25.9514 89.6014 26.2144 89.9883 26.574C90.3752 26.9335 90.6777 27.3873 90.896 27.933C91.1117 28.4785 91.2208 29.1307 91.2208 29.8896V35.7251H88.287V30.718C88.287 29.8451 88.049 29.1953 87.5753 28.7712C87.0991 28.3472 86.4741 28.1364 85.7004 28.1364C84.8448 28.1364 84.2 28.3794 83.766 28.8605C83.332 29.3441 83.1138 29.9641 83.1138 30.718V35.7227H80.1799V25.5547ZM96.5975 21.4874H93.6637V35.7251H96.5975V30.7428L101.161 35.7251H104.623L99.8984 30.4973L104.256 25.5547H100.813L96.5975 30.3137V21.4874ZM77.3156 32.1886V25.2942H74.2825L74.3048 26.9707C73.6451 25.9862 72.4845 25.0884 70.426 25.0884C66.8846 25.0884 65.0643 27.8387 65.0643 30.5964C64.9999 33.3889 67.0582 36.1691 70.2748 36.1691C71.9761 36.1691 73.536 35.4126 74.2825 34.0809C74.5851 34.9587 75.3439 35.921 76.9261 35.921H78.682V33.3444H78.1935C77.5759 33.3444 77.3156 33.1187 77.3156 32.1886ZM71.0659 33.5079C69.3225 33.5079 68.0229 32.3076 68.0229 30.6188C68.0229 28.9523 69.3225 27.7717 71.0659 27.7717C72.8639 27.7717 74.1635 28.9523 74.1635 30.6188C74.1635 32.3052 72.8639 33.5079 71.0659 33.5079Z" fill="#7000FF"></path>
    </g>
    <defs>
      <clipPath id="clip0_436_3823">
        <rect width="108" height="43" fill="white" transform="translate(0 0.5)"></rect>
      </clipPath>
    </defs>
  </symbol>
  <symbol width="8" height="8" viewBox="0 0 8 8" fill="none" xmlns="http://www.w3.org/2000/svg" id="arrow">
    <path d="M5.02645 2.35355C4.83118 2.15829 4.83118 1.84171 5.02645 1.64645C5.22171 1.45118 5.53829 1.45118 5.73355 1.64645L7.85487 3.76777C8.05014 3.96303 8.04979 4.27996 7.85452 4.47522L5.73355 6.59619C5.53829 6.79146 5.22171 6.79146 5.02645 6.59619C4.83118 6.40093 4.83118 6.08435 5.02645 5.88909L6.2942 4.62134H0.5C0.223858 4.62134 0 4.39748 0 4.12134C0 3.8452 0.223858 3.62134 0.5 3.62134H6.29423L5.02645 2.35355Z" fill="#1929B9"/>
  </symbol>
</svg>