<svg width="124" height="50" fill="none" xmlns="http://www.w3.org/2000/svg"><g clip-path="url(#clip0_436_3837)"><path d="M65.3 33.8c-1.1 0-2.1-.2-3-.5-.9-.3-1.7-.8-2.4-1.5s-1.2-1.5-1.6-2.5c-.4-1-.6-2.2-.6-3.5v-.6c0-1.2.2-2.3.6-3.3.4-.9 1-1.7 1.7-2.4s1.5-1.1 2.4-1.5c.9-.3 1.9-.5 2.9-.5 1.1 0 2 .1 2.9.4.8.3 1.5.7 2.1 1.2.6.5 1 1.1 1.4 1.8.3.7.5 1.4.6 2.2h-3.9c-.2-.7-.6-1.3-1-1.7-.5-.4-1.1-.6-2-.6-.5 0-1 .1-1.4.3-.4.2-.8.4-1.2.8-.3.4-.6.8-.8 1.4-.2.5-.3 1.2-.3 2v.6c0 .8.1 1.5.3 2.1.2.6.4 1.1.8 1.4.3.4.7.7 1.2.8.4.2.9.3 1.4.3.8 0 1.4-.2 2-.6.5-.4.9-1 1.1-1.7h3.9c-.1.9-.3 1.6-.7 2.3-.4.7-.9 1.3-1.5 1.8s-1.3.9-2.1 1.1c-.9.3-1.8.4-2.8.4zm14.9-.1c-.9 0-1.7-.1-2.3-.2-.6-.2-1.2-.5-1.6-.9-.4-.4-.7-1-.9-1.7-.2-.7-.3-1.6-.3-2.6V13H79v14.8c0 .5 0 .9.1 1.2.1.3.2.6.3.8.2.2.4.4.6.4.3.1.6.1 1 .1h1.1v3.2c-.1 0-.2 0-.4.1h-1.5v.1zm6.6-17.4c-.7 0-1.3-.2-1.7-.6-.4-.4-.6-.9-.6-1.5s.2-1.1.6-1.5c.4-.4 1-.6 1.7-.6s1.3.2 1.7.6c.4.4.6.9.6 1.5s-.2 1.1-.6 1.5c-.4.4-.9.6-1.7.6zM84.9 18h3.9v15.5h-3.9V18zm14.5 15.8c-1.1 0-2.1-.2-3-.5-.9-.3-1.7-.8-2.4-1.5s-1.2-1.5-1.6-2.5c-.4-1-.6-2.2-.6-3.5v-.6c0-1.2.2-2.3.6-3.3.4-.9 1-1.7 1.7-2.4s1.5-1.1 2.4-1.5c.9-.3 1.9-.5 2.9-.5 1.1 0 2 .1 2.9.4.8.3 1.5.7 2.1 1.2.6.5 1 1.1 1.4 1.8.3.7.5 1.4.6 2.2h-3.9c-.2-.7-.6-1.3-1-1.7-.5-.4-1.1-.6-2-.6-.5 0-1 .1-1.4.3-.4.2-.8.4-1.2.8-.3.4-.6.8-.8 1.4-.2.5-.3 1.2-.3 2v.6c0 .8.1 1.5.3 2.1.2.6.4 1.1.8 1.4.3.4.7.7 1.2.8.4.2.9.3 1.4.3.8 0 1.4-.2 2-.6.5-.4.9-1 1.1-1.7h3.9c-.1.9-.3 1.6-.7 2.3-.4.7-.9 1.3-1.5 1.8s-1.3.9-2.1 1.1c-.9.3-1.8.4-2.8.4zm9.7-.3V13h3.8v11.4l5.7-6.4h4.5l-5.8 6.5 6.4 9h-4.6l-4.4-6.3-1.8 1.9v4.4h-3.8z" fill="#000"/><path d="M16 33.9c-6.2-6.2-6.1-11.8 0-18 6.1-6.1 11.8-6.2 18 0 6.2 6.2 6.1 11.8 0 18-3.1 3.1-6 4.6-9 4.6-3 .1-5.9-1.5-9-4.6zM8.5 8.5C2.9 14.1 0 19.5 0 24.9v.1c0 5.4 2.8 10.8 8.5 16.4 5.7 5.7 11.1 8.5 16.4 8.5h.1c5.4 0 10.8-2.9 16.4-8.5 11.3-11.3 11.4-21.6 0-33C35.8 2.8 30.4 0 25 0 19.5 0 14.1 2.8 8.5 8.5z" fill="url(#paint0_linear_436_3837)"/></g><defs><linearGradient id="paint0_linear_436_3837" x1="8.037" y1="41.786" x2="41.426" y2="8.584" gradientUnits="userSpaceOnUse"><stop stop-color="#0073FF"/><stop offset="1" stop-color="#00DEFF"/></linearGradient><clipPath id="clip0_436_3837"><path fill="#fff" d="M0 0h124v50H0z"/></clipPath></defs></svg>