<svg width="24" height="24" fill="none" xmlns="http://www.w3.org/2000/svg"><mask id="a" style="mask-type:alpha" maskUnits="userSpaceOnUse" x="0" y="3" width="24" height="18"><path d="M21.714 3.429H2.286A2.286 2.286 0 000 5.714v12.572a2.286 2.286 0 002.286 2.285h19.428A2.286 2.286 0 0024 18.286V5.714a2.286 2.286 0 00-2.286-2.285z" fill="#fff"/></mask><g mask="url(#a)"><path d="M21.714 3.429H2.286A2.286 2.286 0 000 5.714v12.572a2.286 2.286 0 002.286 2.285h19.428A2.286 2.286 0 0024 18.286V5.714a2.286 2.286 0 00-2.286-2.285z" fill="#22438B"/><path fill-rule="evenodd" clip-rule="evenodd" d="M1.766 3L-1 3.036l.035 2.727L22.22 21l2.78-.051-.052-2.71L1.766 3z" fill="#fff"/><path fill-rule="evenodd" clip-rule="evenodd" d="M.368 3L-1 4.385 23.632 21 25 19.615.368 3z" fill="#C7152A"/><path fill-rule="evenodd" clip-rule="evenodd" d="M22.282 3H25v2.759S9.034 15.962 1.925 20.972c-.085.06-2.714.004-2.714.004L-1 18.354 22.282 3z" fill="#fff"/><path fill-rule="evenodd" clip-rule="evenodd" d="M23.69 3L25 4.42.368 21-1 19.618 23.69 3z" fill="#C7152A"/><path fill-rule="evenodd" clip-rule="evenodd" d="M8.579 3h6.842v5.538H25v6.923h-9.579V21H8.58v-5.539H-1V8.538h9.579V3z" fill="#fff"/><path fill-rule="evenodd" clip-rule="evenodd" d="M10.105 3.5h3.79v6.654H24v3.692H13.895V20.5h-3.79v-6.654H0v-3.692h10.105V3.5z" fill="#C7152A"/><path d="M21.714 4H2.286C1.339 4 .57 4.768.57 5.714v12.572c0 .947.768 1.714 1.715 1.714h19.428c.947 0 1.714-.767 1.714-1.714V5.714c0-.946-.767-1.714-1.714-1.714z" stroke="#000" stroke-opacity=".1"/></g></svg>