<svg width="120" height="42" fill="none" xmlns="http://www.w3.org/2000/svg"><path d="M45.852 34.222V8.557h10.762c1.95 0 3.634.346 5.05 1.04 1.425.685 2.523 1.67 3.294 2.957.772 1.279 1.158 2.795 1.158 4.55 0 1.779-.394 3.291-1.183 4.536-.789 1.237-1.908 2.18-3.358 2.832-1.45.644-3.168.965-5.152.965h-6.805V20.55h5.635c.95 0 1.742-.121 2.379-.364.644-.25 1.132-.626 1.462-1.128.331-.51.496-1.16.496-1.954s-.165-1.45-.496-1.968c-.33-.526-.818-.92-1.462-1.178-.645-.267-1.438-.401-2.38-.401H52.15v20.665h-6.297zm14.667-11.73l6.488 11.73h-6.87l-6.36-11.73h6.742zm9.051 11.73V14.973h6.22v19.25h-6.22zm3.116-21.492c-.873 0-1.624-.284-2.251-.852-.628-.577-.942-1.27-.942-2.08 0-.803.314-1.488.942-2.056.627-.576 1.378-.865 2.251-.865.882 0 1.633.289 2.252.865.627.568.941 1.253.941 2.055 0 .81-.314 1.504-.941 2.08-.62.569-1.37.853-2.252.853zM79.8 34.222v-3.496l9.057-10.866v-.125h-8.739v-4.762h16.155v3.835l-8.395 10.527v.125h8.7v4.762H79.8zm29.372.364c-2.044 0-3.808-.397-5.292-1.19a8.29 8.29 0 01-3.409-3.422c-.789-1.487-1.183-3.254-1.183-5.301 0-1.989.398-3.726 1.196-5.213a8.555 8.555 0 013.371-3.484c1.45-.836 3.158-1.254 5.126-1.254 1.391 0 2.663.213 3.816.64a8.215 8.215 0 012.989 1.892c.84.835 1.493 1.867 1.959 3.095.467 1.22.7 2.62.7 4.198v1.53h-16.982v-3.56h11.194c-.008-.651-.165-1.232-.471-1.742a3.176 3.176 0 00-1.259-1.19c-.526-.293-1.132-.439-1.819-.439-.695 0-1.319.155-1.87.464-.551.3-.988.714-1.31 1.24a3.452 3.452 0 00-.509 1.768v3.621c0 .786.157 1.475.471 2.068a3.37 3.37 0 001.335 1.366c.577.326 1.264.489 2.061.489a4.71 4.71 0 001.501-.226c.45-.15.836-.372 1.158-.664a2.74 2.74 0 00.725-1.078l5.711.163c-.237 1.262-.759 2.36-1.564 3.296-.797.928-1.845 1.65-3.142 2.168-1.298.51-2.799.765-4.503.765zM8.218 7.845a3.571 3.571 0 013.434-2.595h23.284a3.571 3.571 0 013.572 3.571V33.18a3.571 3.571 0 01-3.572 3.571H4.728a3.571 3.571 0 01-3.435-4.547L8.218 7.845z" fill="#1929B9"/><path d="M24.365 10.205c-.155 1.132-.685 2.546-1.59 4.244a42.204 42.204 0 01-3.248 5.06c-1.237 1.675-2.397 3.057-3.48 4.145h6.561v-4.668c.685-.957 1.381-2.089 2.088-3.395.707-1.305 1.17-2.383 1.392-3.231h2.816v11.294h3.181v4.799h-3.18v4.603h-6.297v-4.603h-11.1v-4.864c1.193-1.698 2.375-3.754 3.546-6.17a47.182 47.182 0 002.816-7.214h6.495z" fill="#fff"/></svg>