<svg width="105" height="32" fill="none" xmlns="http://www.w3.org/2000/svg"><g clip-path="url(#clip0_436_3825)"><path d="M29.647 22.324c0 .496.124.992.741.992H33.6c.618 0 .741-.496.741-.992v-9.796c0-.62 0-1.24-.123-1.736-.124-.496-.247-.992-.37-1.364a2.702 2.702 0 00-.619-.992c-.247-.248-.617-.496-.864-.744-.37-.248-.742-.372-1.112-.62-.37-.124-.865-.248-1.235-.372-.495-.124-.989-.124-1.483-.248h-1.853c-4.447 0-6.917 1.364-7.535 4.092v.372c0 .124 0 .248.124.248l.247.248c.123 0 .247.124.37.124h2.718c.741 0 .741-.248.988-.868.124-.372.37-.62.618-.868.494-.496 1.235-.62 2.223-.62.989 0 1.73.248 2.224.62.494.372.741.992.741 1.736 0 .868-.247 1.488-1.359 1.488-2.718-.124-5.559.248-7.165 1.116-1.605.868-2.594 2.728-2.594 4.712 0 .744.124 1.488.494 2.108.247.62.742 1.116 1.236 1.488.494.372 1.111.744 1.853.868.74.248 1.482.372 2.347.248a12.4 12.4 0 003.088-.372c.865-.248 2.347-1.24 2.47-1.364l-.123.496zm-.123-3.472s-.865 1.736-3.706 1.736c-.742 0-1.36-.124-1.977-.496-.494-.372-.741-.868-.741-1.736 0-.992.37-1.736 1.235-2.108.865-.372 2.47-.62 3.706-.62 1.235 0 1.606.744 1.606 1.364-.123.124-.123 1.86-.123 1.86zm-28.412 4.34h3.212c.864 0 .74-.992.74-.992v-2.728c-2.346-.868-3.829-1.984-4.94-3.1v5.704c.123.248 0 1.116.988 1.116zm16.8-15.748c0-.744-.124-1.364-.247-2.108-.124-.62-.494-1.364-.865-1.86a5.279 5.279 0 00-1.359-1.488c-.494-.372-1.112-.744-1.73-.868-.617-.248-1.358-.496-2.1-.496C10.748.5 10.007.5 9.019.5H1.606C.988.5.247.872.247 1.74v11.904c.988 1.984 2.718 4.092 4.818 5.084v-2.356c0-1.24.988-1.488 1.359-1.488h2.223c3.088 0 5.312-.62 6.918-1.86 1.606-1.24 2.347-3.1 2.347-5.58zM12.6 9.552a2.92 2.92 0 01-1.112.992 3.792 3.792 0 01-1.606.372c-.617 0-1.235.124-1.853.124h-2.1c-.494 0-.864-.372-.864-.992V4.964c0-.124.123-.248.123-.248.124-.124.124-.124.247-.124H9.76c.494 0 1.112.124 1.606.372s.864.496.988.992c.247.372.37.992.37 1.86.248.496.124 1.116-.123 1.736zm25.57 16.492h-.74c-.248 0-.865 0-.865.496v2.232c0 .868.37.868.617.992.618.124 1.36.248 2.1.248.865 0 1.606-.124 2.347-.496.742-.372 1.36-.744 1.853-1.364.495-.62.989-1.364 1.36-2.108.37-.868.74-1.736 1.11-2.728 0 0 .125-.372.495-1.116-.741.62-4.57 4.216-8.276 3.844zm12.848-19.22h-2.842c-.247 0-.494.124-.74.248-.248.124-.371.372-.495.62-.247.62-3.335 9.176-3.335 9.176S40.64 8.56 40.394 7.94c-.247-.62-.617-1.116-1.359-1.116h-2.717c-.989 0-.989.744-.865.992.123.248 3.706 10.168 5.188 14.012.37.868.494 1.116.494 1.488 0 .372-.37.992-.617 1.488-.124.124-.247.372-.37.496 2.717-.868 5.928-3.72 7.534-6.944 1.606-4.464 3.706-10.292 3.83-10.664.247-.496.247-.868-.494-.868z" fill="#232225"/><path d="M88.818 10.42c-1.73 0-2.841 1.116-3.088 3.1h6.052c-.123-1.736-1.111-3.1-2.964-3.1z" fill="#3CC"/><path d="M101.541 13.52c-.617-.744-4.447-5.704-5.806-7.068-1.606-1.612-2.964-2.356-4.447-2.356H58.677c-2.965 0-3.953.992-3.953 4.34v13.516c0 3.348.247 4.836 4.57 4.836h31.994c1.483 0 3.089-1.24 4.2-2.48 1.36-1.364 5.436-5.704 6.053-6.82.371-.62.494-1.24.494-1.984.124-.744-.123-1.488-.494-1.984zM57.688 8.808c0-.496.124-.868.741-.868h2.718c.741 0 .741.372.741.868v.124c-1.358.744-2.84 1.488-4.2 3.348V8.808zm21.37 13.516h-2.84c-.741 0-.618-.62-.618-.868v-8.308c0-.992-.123-1.612-.37-1.984-.124-.248-.371-.372-.618-.496s-.494-.124-.741-.124c-1.483 0-2.47 1.488-2.965 2.108v8.928c0 .248.123.744-.741.744h-2.718c-.741 0-.618-.62-.618-.868v-8.308c0-.992-.123-1.612-.37-1.984-.247-.372-.741-.62-1.359-.62-1.606 0-2.47 1.488-2.965 2.108v8.928c0 .248.124.744-.74.744h-2.842c-.741 0-.618-.62-.618-.868V16c0-3.596 4.447-7.068 4.694-7.316 1.112-.868 2.471-1.24 3.83-1.24.988 0 1.853.124 2.718.62.74.496 1.235 1.116 1.605 1.984a8.097 8.097 0 012.224-1.86c.741-.496 1.606-.62 2.47-.62 3.212 0 4.695 1.736 4.695 5.332v8.68c-.37.248-.247.744-1.112.744zM94.749 16H85.73c0 2.356 1.236 3.596 3.212 3.596 1.236 0 1.977-.496 2.594-1.612l.371-.372c.123-.124.37-.124.494-.124h2.594c.124 0 .124.124.124.124l.123.124v.248c-.988 2.604-3.335 4.092-6.3 4.092-4.323 0-7.04-2.852-7.04-7.192 0-4.216 2.964-7.316 6.917-7.316 4.076 0 6.67 2.728 6.794 7.192 0 .62-.124 1.24-.865 1.24z" fill="#3CC"/></g><defs><clipPath id="clip0_436_3825"><path fill="#fff" transform="translate(0 .5)" d="M0 0h105v31H0z"/></clipPath></defs></svg>