<svg width="108" height="44" fill="none" xmlns="http://www.w3.org/2000/svg"><g clip-path="url(#clip0_436_3823)"><path fill-rule="evenodd" clip-rule="evenodd" d="M21.358 42.654c11.577 0 20.959-9.35 20.959-20.887C42.317 10.21 32.935.861 21.358.858 9.79.858.398 10.21.398 21.768c0 11.534 9.394 20.886 20.96 20.886zm-.002-34.636c.816 0 1.622.032 2.406.104v11.15H18.96V8.122c.784-.072 1.59-.104 2.396-.104zm8.15 5.255c1.872.333 3.66.794 5.353 1.347h.003v8.067c0 7.408-6.046 13.46-13.504 13.46-7.444 0-13.49-6.052-13.49-13.46V14.62a39.84 39.84 0 015.354-1.347v9.362c0 6.741 2.876 10.282 8.136 10.282 5.28 0 8.147-3.541 8.147-10.282v-9.362zm69.028-1.894c.702-1.153 2.108-1.917 3.986-1.917 3.167 0 4.697 2.011 4.704 4.496v5.97h-2.958v-5.553c0-1.186-.672-2.232-2.098-2.232-1.426 0-2.128 1.007-2.128 2.19v5.594h-2.959v-5.594c0-1.183-.746-2.19-2.182-2.19-1.426 0-2.056 1.049-2.056 2.232v5.552h-2.959v-5.971c0-2.483 1.624-4.494 4.782-4.494 1.614 0 3.154.764 3.868 1.917zm-23.87.776V9.66h-9.597v2.495h5.684l-5.915 5.28v2.495h10.186v-2.495h-6.263l5.905-5.28zm10.005 2.882c0 1.634-.923 2.388-2.287 2.388-1.374 0-2.264-.754-2.264-2.388V9.66h-2.959v5.481c0 3.574 2.979 4.978 5.233 4.978 2.225 0 5.233-1.404 5.233-4.978v-5.48h-2.959v5.376h.003zm-24.73 0c0 1.634-.923 2.388-2.287 2.388-1.374 0-2.265-.754-2.265-2.388V9.66H52.43v5.481c0 3.574 2.978 4.978 5.232 4.978 2.225 0 5.233-1.404 5.233-4.978v-5.48h-2.958v5.376h.002zM57.43 35.462c.454.189 1.014.283 1.679.283.664 0 1.297-.117 1.897-.34a4.584 4.584 0 001.567-.992 4.691 4.691 0 001.07-1.6c.265-.634.396-1.358.396-2.17 0-.81-.131-1.535-.397-2.17a4.691 4.691 0 00-1.069-1.599 4.583 4.583 0 00-1.567-.992 5.22 5.22 0 00-1.895-.345c-.652 0-1.203.075-1.649.224a5 5 0 00-1.12.508 3.508 3.508 0 00-.856.712h-.122V21.49h-2.931v14.238h2.931v-1.774h.141c.204.338.477.635.816.896.283.22.655.424 1.109.612zm2.85-3.033c-.497.474-1.191.712-2.089.712-.895 0-1.59-.238-2.085-.712-.496-.473-.745-1.071-.745-1.79 0-.747.258-1.35.774-1.81.516-.462 1.2-.693 2.056-.693.895 0 1.592.238 2.088.712s.744 1.071.744 1.79c0 .72-.248 1.318-.744 1.791zm19.899-6.874h2.934v1.825h.163c.177-.345.427-.65.754-.913.273-.225.643-.436 1.111-.635.47-.198 1.07-.297 1.803-.297.598 0 1.159.084 1.68.25.52.166.976.43 1.363.789.387.36.69.813.908 1.359.216.546.325 1.198.325 1.957v5.835h-2.934v-5.007c0-.873-.238-1.523-.712-1.947-.476-.424-1.1-.635-1.875-.635-.855 0-1.5.243-1.934.724-.434.484-.652 1.104-.652 1.858v5.005H80.18V25.555zm16.417-4.068h-2.933v14.238h2.933v-4.982l4.564 4.982h3.462l-4.725-5.228 4.358-4.942h-3.443l-4.216 4.759v-8.827zM77.316 32.19v-6.895h-3.034l.023 1.677c-.66-.985-1.82-1.883-3.879-1.883-3.541 0-5.362 2.75-5.362 5.508-.064 2.793 1.994 5.573 5.21 5.573 1.702 0 3.262-.756 4.008-2.088.303.878 1.062 1.84 2.644 1.84h1.756v-2.577h-.489c-.617 0-.877-.225-.877-1.155zm-6.25 1.319c-1.743 0-3.043-1.2-3.043-2.89 0-1.666 1.3-2.846 3.043-2.846 1.798 0 3.097 1.18 3.097 2.847 0 1.686-1.3 2.889-3.097 2.889z" fill="#7000FF"/></g><defs><clipPath id="clip0_436_3823"><path fill="#fff" transform="translate(0 .5)" d="M0 0h108v43H0z"/></clipPath></defs></svg>